<?xml version="1.0" encoding="UTF-8" standalone="no"?>
<svg
   xmlns:dc="http://purl.org/dc/elements/1.1/"
   xmlns:cc="http://creativecommons.org/ns#"
   xmlns:rdf="http://www.w3.org/1999/02/22-rdf-syntax-ns#"
   xmlns:svg="http://www.w3.org/2000/svg"
   xmlns="http://www.w3.org/2000/svg"
   xmlns:sodipodi="http://sodipodi.sourceforge.net/DTD/sodipodi-0.dtd"
   xmlns:inkscape="http://www.inkscape.org/namespaces/inkscape"
   id="Layer_1"
   data-name="Layer 1"
   viewBox="0 0 119.99999 140.00001"
   version="1.1"
   sodipodi:docname="txGeneNetwork-logo.svg"
   width="120"
   height="140"
   inkscape:version="1.0 (262b4497e3, 2020-09-04)">
  <metadata
     id="metadata91">
    <rdf:RDF>
      <cc:Work
         rdf:about="">
        <dc:format>image/svg+xml</dc:format>
        <dc:type
           rdf:resource="http://purl.org/dc/dcmitype/StillImage" />
        <dc:title>logo_txGene_network</dc:title>
      </cc:Work>
    </rdf:RDF>
  </metadata>
  <sodipodi:namedview
     pagecolor="#ffffff"
     bordercolor="#666666"
     borderopacity="1"
     objecttolerance="10"
     gridtolerance="10"
     guidetolerance="10"
     inkscape:pageopacity="0"
     inkscape:pageshadow="2"
     inkscape:window-width="1910"
     inkscape:window-height="2124"
     id="namedview89"
     showgrid="false"
     units="px"
     inkscape:zoom="6.2984359"
     inkscape:cx="56.442585"
     inkscape:cy="70.970001"
     inkscape:window-x="1922"
     inkscape:window-y="28"
     inkscape:window-maximized="0"
     inkscape:current-layer="Layer_1" />
  <defs
     id="defs7">
    <style
       id="style2">.cls-1{fill:#aac6ff;}.cls-2{fill:#8fb9ff;}.cls-3{clip-path:url(#clip-path);}.cls-4{fill:#8591ff;}.cls-5,.cls-7{fill:none;}.cls-5,.cls-7,.cls-9{stroke:#000;}.cls-10,.cls-5,.cls-7,.cls-8,.cls-9{stroke-miterlimit:10;}.cls-5{stroke-width:3px;}.cls-6{fill:#8785df;}.cls-8{fill:#425fb9;stroke:#4465af;stroke-width:7px;}.cls-10,.cls-9{fill:#f8766d;stroke-width:0.5px;}.cls-10{stroke:#001507;}</style>
    <clipPath
       id="clip-path"
       transform="translate(11.55 -0.31)">
      <polygon
         class="cls-1"
         points="117.65,35.5 117.65,103.26 60.06,136.71 1.2,103.26 1.2,35.5 60.06,2.25 "
         id="polygon4" />
    </clipPath>
  </defs>
  <title
     id="title9">logo_txGene_network</title>
  <g
     id="g927" />
  <g
     id="g137"
     transform="matrix(1.0109312,0,0,1.0109312,-12.134563,-0.00994741)">
    <polygon
       id="polygon21"
       class="cls-2"
       points="129.19,35.19 129.19,102.95 71.61,136.4 12.75,102.95 12.75,35.19 71.61,1.94 " />
    <polygon
       class="cls-1"
       points="71.61,1.94 129.19,35.19 129.19,102.95 71.61,136.4 12.75,102.95 12.75,35.19 "
       id="polygon12" />
    <path
       id="path45"
       class="cls-2"
       d="m 116.65,64.89 c 0.06,-0.88 0.11,-1.77 0.15,-2.63 0,-1.59 -0.07,-3.17 -0.1,-4.76 0,-0.41 0,-0.81 0,-1.23 v 0 z"
       transform="translate(11.55,-0.31)" />
    <path
       id="path47"
       class="cls-2"
       d="m 116.65,86.45 v 4.4 c 0,-0.28 0.1,-0.55 0.13,-0.84 a 14.63,14.63 0 0 0 -0.13,-3.56 z"
       transform="translate(11.55,-0.31)" />
    <path
       id="path49"
       class="cls-2"
       d="m 59.66,102.82 0.15,-0.14 h -0.05 z"
       transform="translate(11.55,-0.31)" />
    <path
       id="path79"
       class="cls-4"
       d="M 114,32.56 69.42,6.81 59.74,1.22 50.06,6.81 5.47,32.56 0.76,35.27 v 68.11 l 4.71,2.72 45.14,26.07 9.13,5.26 9.14,-5.26 45.12,-26.07 4.7,-2.72 V 35.27 Z m 0,68.27 L 59.74,132.17 5.47,100.83 V 38.14 L 59.74,6.81 v 0 L 114,38.14 Z"
       transform="translate(11.55,-0.31)" />
    <line
       class="cls-5"
       x1="68.860001"
       y1="96.580002"
       x2="78.989998"
       y2="94.349998"
       id="line23" />
    <line
       class="cls-5"
       x1="63.07"
       y1="92.18"
       x2="70.75"
       y2="81.860001"
       id="line25" />
    <line
       class="cls-5"
       x1="57.23"
       y1="77.599998"
       x2="69.089996"
       y2="77.400002"
       id="line27" />
    <ellipse
       class="cls-6"
       cx="66.959999"
       cy="62.240002"
       rx="4.77"
       ry="4.9699998"
       id="ellipse29" />
    <ellipse
       class="cls-6"
       cx="73.550003"
       cy="78.139999"
       rx="4.77"
       ry="4.9699998"
       id="ellipse31" />
    <line
       class="cls-5"
       x1="54.830002"
       y1="71.370003"
       x2="63.110001"
       y2="65.150002"
       id="line33" />
    <line
       class="cls-7"
       x1="68.769997"
       y1="57.740002"
       x2="77.209999"
       y2="49.290001"
       id="line35" />
    <line
       class="cls-7"
       x1="71.720001"
       y1="62.240002"
       x2="84.529999"
       y2="61.049999"
       id="line37" />
    <circle
       class="cls-8"
       cx="58.970001"
       cy="102.37"
       r="9.9499998"
       id="circle39" />
    <line
       class="cls-7"
       x1="87.220001"
       y1="90.519997"
       x2="100.1"
       y2="88.540001"
       id="line41" />
    <line
       class="cls-7"
       x1="86.010002"
       y1="97.080002"
       x2="97.080002"
       y2="102.63"
       id="line43" />
    <ellipse
       class="cls-9"
       cx="92.010002"
       cy="88.879997"
       rx="3.3199999"
       ry="3.49"
       transform="rotate(-62.19,97.53117,79.150834)"
       id="ellipse45" />
    <line
       class="cls-7"
       x1="78.059998"
       y1="76.690002"
       x2="90.519997"
       y2="73.660004"
       id="line47" />
    <ellipse
       class="cls-10"
       cx="82.110001"
       cy="73.199997"
       rx="3.49"
       ry="3.3199999"
       transform="rotate(-5.29,84.507117,-51.954815)"
       id="ellipse49" />
    <ellipse
       class="cls-9"
       cx="76.400002"
       cy="60.389999"
       rx="3.3199999"
       ry="3.49"
       transform="rotate(-53.35,81.857248,48.7408)"
       id="ellipse51" />
    <ellipse
       class="cls-6"
       cx="83.18"
       cy="93.160004"
       rx="4.77"
       ry="4.9699998"
       id="ellipse53" />
    <circle
       class="cls-8"
       cx="46.299999"
       cy="77.779999"
       r="9.9499998"
       id="circle55" />
    <ellipse
       class="cls-9"
       cx="88.18"
       cy="104.26"
       rx="3.3199999"
       ry="3.49"
       transform="rotate(-62.19,93.702061,94.535045)"
       id="ellipse57" />
    <ellipse
       class="cls-9"
       cx="68.050003"
       cy="47.209999"
       rx="3.3199999"
       ry="3.49"
       transform="rotate(-53.35,73.519597,35.565257)"
       id="ellipse59" />
    <path
       d="m 23.21,32.06 v 1.62 h 1.5 v 0.78 h -1.5 v 3 c 0,0.71 0.21,1.1 0.79,1.1 a 2.26,2.26 0 0 0 0.61,-0.07 v 0.78 A 2.63,2.63 0 0 1 23.68,39.41 1.46,1.46 0 0 1 22.6,39 2.1,2.1 0 0 1 22.19,37.53 v -3.07 h -0.88 v -0.78 h 0.88 v -1.36 z"
       transform="translate(11.55,-0.31)"
       id="path61" />
    <path
       d="m 26.36,33.68 0.82,1.21 c 0.22,0.31 0.4,0.6 0.59,0.91 v 0 c 0.19,-0.33 0.39,-0.62 0.58,-0.92 l 0.8,-1.2 h 1.15 l -1.95,2.72 2,2.92 h -1.17 l -0.85,-1.27 c -0.22,-0.33 -0.41,-0.65 -0.61,-1 v 0 c -0.19,0.34 -0.38,0.64 -0.61,1 l -0.82,1.27 h -1.18 l 2,-2.88 -1.91,-2.76 z"
       transform="translate(11.55,-0.31)"
       id="path63" />
    <path
       d="m 37.48,39 a 7.39,7.39 0 0 1 -2.45,0.43 4.16,4.16 0 0 1 -3,-1 4.16,4.16 0 0 1 3.21,-7 5.07,5.07 0 0 1 2,0.36 l -0.26,0.83 a 4.08,4.08 0 0 0 -1.76,-0.34 3,3 0 0 0 -3.22,3.11 2.9,2.9 0 0 0 3.08,3.17 3.31,3.31 0 0 0 1.37,-0.22 V 36 h -1.6 v -0.81 h 2.63 z"
       transform="translate(11.55,-0.31)"
       id="path65" />
    <path
       d="m 39.66,36.68 a 1.81,1.81 0 0 0 2,2 3.82,3.82 0 0 0 1.58,-0.29 l 0.18,0.73 a 4.72,4.72 0 0 1 -1.91,0.36 2.65,2.65 0 0 1 -2.81,-2.85 2.75,2.75 0 0 1 2.69,-3 2.39,2.39 0 0 1 2.36,2.65 1.93,1.93 0 0 1 0,0.48 z m 3,-0.74 a 1.46,1.46 0 0 0 -1.43,-1.66 1.7,1.7 0 0 0 -1.6,1.66 z"
       transform="translate(11.55,-0.31)"
       id="path67" />
    <path
       d="m 45,35.2 c 0,-0.59 0,-1.05 0,-1.52 h 0.92 l 0.06,0.93 v 0 a 2.11,2.11 0 0 1 1.89,-1.06 c 0.79,0 2,0.47 2,2.4 v 3.37 h -1 v -3.25 c 0,-0.92 -0.35,-1.68 -1.32,-1.68 a 1.5,1.5 0 0 0 -1.41,1 1.73,1.73 0 0 0 -0.07,0.48 v 3.4 H 45 Z"
       transform="translate(11.55,-0.31)"
       id="path69" />
    <path
       d="m 52.16,36.68 a 1.81,1.81 0 0 0 2,2 3.91,3.91 0 0 0 1.59,-0.29 l 0.18,0.73 a 4.76,4.76 0 0 1 -1.91,0.36 2.65,2.65 0 0 1 -2.82,-2.85 2.75,2.75 0 0 1 2.69,-3 2.39,2.39 0 0 1 2.36,2.65 2.8,2.8 0 0 1 0,0.48 z m 3.05,-0.74 a 1.47,1.47 0 0 0 -1.44,-1.66 1.71,1.71 0 0 0 -1.6,1.66 z"
       transform="translate(11.55,-0.31)"
       id="path71" />
    <path
       d="m 57.54,39.32 v -7.86 h 1.13 l 2.56,4 A 21.89,21.89 0 0 1 62.65,38 v 0 c -0.09,-1 -0.11,-2 -0.11,-3.23 v -3.31 h 1 v 7.86 h -1 l -2.54,-4 a 25.12,25.12 0 0 1 -1.48,-2.63 v 0 c 0.07,1 0.08,1.95 0.08,3.25 v 3.36 z"
       transform="translate(11.55,-0.31)"
       id="path73" />
    <path
       d="m 65.86,36.68 a 1.81,1.81 0 0 0 2,2 3.91,3.91 0 0 0 1.59,-0.29 l 0.18,0.73 a 4.76,4.76 0 0 1 -1.91,0.36 2.65,2.65 0 0 1 -2.82,-2.85 2.75,2.75 0 0 1 2.69,-3 2.39,2.39 0 0 1 2.36,2.65 2.8,2.8 0 0 1 0,0.48 z m 3,-0.74 a 1.47,1.47 0 0 0 -1.44,-1.66 1.71,1.71 0 0 0 -1.6,1.66 z"
       transform="translate(11.55,-0.31)"
       id="path75" />
    <path
       d="m 72.46,32.06 v 1.62 H 74 v 0.78 h -1.54 v 3 c 0,0.71 0.2,1.1 0.79,1.1 a 2.18,2.18 0 0 0 0.6,-0.07 l 0.05,0.78 A 2.71,2.71 0 0 1 72.97,39.41 1.48,1.48 0 0 1 71.84,39 2.1,2.1 0 0 1 71.44,37.53 v -3.07 h -0.89 v -0.78 h 0.89 v -1.36 z"
       transform="translate(11.55,-0.31)"
       id="path77" />
    <path
       d="m 75.64,33.68 0.77,2.86 c 0.17,0.63 0.31,1.22 0.43,1.8 v 0 a 17.5,17.5 0 0 1 0.51,-1.79 l 0.93,-2.87 h 0.88 l 0.89,2.82 c 0.21,0.67 0.37,1.26 0.51,1.84 v 0 c 0.11,-0.57 0.26,-1.17 0.45,-1.83 l 0.82,-2.83 h 1 l -1.85,5.64 h -0.94 l -0.87,-2.69 a 17,17 0 0 1 -0.51,-1.86 v 0 a 17.81,17.81 0 0 1 -0.53,1.86 l -0.92,2.69 h -1 l -1.73,-5.64 z"
       transform="translate(11.55,-0.31)"
       id="path80" />
    <path
       d="m 89,36.44 a 2.78,2.78 0 0 1 -2.84,3 2.7,2.7 0 0 1 -2.76,-2.9 2.77,2.77 0 0 1 2.85,-3 2.68,2.68 0 0 1 2.75,2.9 z m -4.54,0.07 c 0,1.24 0.72,2.17 1.74,2.17 1.02,0 1.8,-0.92 1.8,-2.2 0,-1 -0.49,-2.16 -1.72,-2.16 -1.23,0 -1.81,1.12 -1.81,2.19 z"
       transform="translate(11.55,-0.31)"
       id="path82" />
    <path
       d="m 90.33,35.43 c 0,-0.66 0,-1.23 0,-1.75 h 0.91 v 1.1 0 a 1.74,1.74 0 0 1 1.6,-1.23 1.36,1.36 0 0 1 0.29,0 v 1 a 1.94,1.94 0 0 0 -0.36,0 1.45,1.45 0 0 0 -1.39,1.32 2.35,2.35 0 0 0 0,0.47 v 3 h -1 z"
       transform="translate(11.55,-0.31)"
       id="path84" />
    <path
       d="m 95.28,36.26 v 0 c 0.14,-0.2 0.33,-0.44 0.5,-0.64 l 1.69,-1.94 h 1.25 l -2.19,2.32 2.53,3.32 h -1.27 l -2,-2.71 -0.54,0.58 v 2.13 h -1 V 31 h 1 z"
       transform="translate(11.55,-0.31)"
       id="path86" />
  </g>
</svg>
